<svg xmlns="http://www.w3.org/2000/svg" width="800px" height="800px" viewBox="0 0 32 32" xmlns:bx="https://boxy-svg.com">
  <defs>
    <bx:export>
      <bx:file format="svg"></bx:file>
    </bx:export>
  </defs>
  <ellipse style="paint-order: fill; fill-rule: nonzero; stroke: rgb(0, 0, 0); stroke-opacity: 0; fill: rgb(238, 119, 119);" cx="15.949" cy="10.752" rx="10" ry="10"></ellipse>
  <path style="stroke: rgb(0, 0, 0); stroke-opacity: 0; fill: rgb(238, 119, 119); transform-origin: 15.319px 9.861px 0px;" d="M 8.338 8.656 H 22.299 A 0 0 0 0 1 22.299 8.656 V 11.066 A 0 0 0 0 1 22.299 11.066 H 8.338 A 0 0 0 0 1 8.338 11.066 V 8.656 A 0 0 0 0 1 8.338 8.656 Z" bx:shape="rect 8.338 8.656 13.961 2.41 0 0 0 2@94dc025f" transform="matrix(0.48481, 0.87462, -0.87462, 0.48481, -2.224848, 13.592005)"></path>
  <path style="stroke: rgb(0, 0, 0); stroke-opacity: 0; fill: rgb(238, 119, 119); stroke-width: 1px; transform-origin: 15.319px 9.861px 0px;" d="M 8.338 8.656 H 22.299 A 0 0 0 0 1 22.299 8.656 V 11.066 A 0 0 0 0 1 22.299 11.066 H 8.338 A 0 0 0 0 1 8.338 11.066 V 8.656 A 0 0 0 0 1 8.338 8.656 Z" bx:shape="rect 8.338 8.656 13.961 2.41 0 0 0 2@94dc025f" transform="matrix(0.484809, -0.87462, 0.87462, 0.484809, 3.689787, 13.524041)"></path>
  <path style="stroke: rgb(0, 0, 0); stroke-opacity: 0; fill: rgb(238, 119, 119); stroke-width: 1px; transform-origin: 8.116px 22.452px 0px;" d="M 4.418 19.707 H 11.814 A 0 0 0 0 1 11.814 19.707 V 25.194 A 0 0 0 0 1 11.814 25.194 H 4.418 A 0 0 0 0 1 4.418 25.194 V 19.707 A 0 0 0 0 1 4.418 19.707 Z" bx:shape="rect 4.418 19.707 7.396 5.487 0 0 0 2@770b5967" transform="matrix(1, -0.000001, 0.000001, 1, 7.883728, -1.015547)"></path>
  <path style="stroke: rgb(0, 0, 0); stroke-opacity: 0; fill: rgb(238, 119, 119); stroke-width: 1px; transform-origin: 3.164px 13.499px 0px;" d="M 1.722 11.849 H 4.605 A 0 0 0 0 1 4.605 11.849 V 15.148 A 0 0 0 0 1 4.605 15.148 H 1.722 A 0 0 0 0 1 1.722 15.148 V 11.849 A 0 0 0 0 1 1.722 11.849 Z" bx:shape="rect 1.722 11.849 2.883 3.299 0 0 0 2@83671818" transform="matrix(1, -0.000001, 0.000001, 1, 12.836146, 11.596018)"></path>
  <path d="M16.001 1.072c5.291 0 9.596 4.305 9.596 9.597 0 1.683-0.446 3.341-1.29 4.799l-8.307 14.394-8.308-14.395c-0.843-1.456-1.289-3.115-1.289-4.798 0-5.292 4.305-9.597 9.597-9.597zM16.001 14.4c2.058 0 3.731-1.674 3.731-3.731s-1.674-3.731-3.731-3.731c-2.058 0-3.732 1.674-3.732 3.731s1.674 3.731 3.732 3.731zM16.001 0.006c-5.889 0-10.663 4.775-10.663 10.663 0 1.945 0.523 3.762 1.432 5.332l9.23 15.994 9.23-15.994c0.909-1.57 1.432-3.387 1.432-5.332 0-5.888-4.774-10.663-10.662-10.663v0zM16.001 13.334c-1.472 0-2.666-1.193-2.666-2.665 0-1.471 1.194-2.665 2.666-2.665s2.665 1.194 2.665 2.665c0 1.472-1.193 2.665-2.665 2.665v0z" style="fill: rgb(250, 35, 35);"></path>
</svg>